<?xml version="1.0" standalone="no"?>
<!DOCTYPE svg PUBLIC "-//W3C//DTD SVG 1.1//EN" "http://www.w3.org/Graphics/SVG/1.1/DTD/svg11.dtd" >
<svg xmlns="http://www.w3.org/2000/svg">
<metadata>
This is a custom SVG webfont generated by Font Squirrel.
Copyright   : Copyright c Phanlop Thongsuk 19952007 All rights reserved
Designer    : Phanlop Thongsuk
Foundry     : Phanlop Thongsuk
Foundry URL : wwwfontpslcom
</metadata>
<defs>
<font id="PSLKittithadaProBold" horiz-adv-x="0" >
<font-face units-per-em="2048" ascent="1638" descent="-410" />
<missing-glyph horiz-adv-x="899" />
<glyph unicode="&#xe37;&#xe48;" d="M-1093 1448v160h547v160h160v-160h97v160h193v-320h-997zM-418 1865v289h193v-289h-193z" />
<glyph unicode=" "  horiz-adv-x="899" />
<glyph unicode="&#x09;" horiz-adv-x="899" />
<glyph unicode="&#xa0;" horiz-adv-x="899" />
<glyph unicode="!" horiz-adv-x="585" d="M144 135q0 30 12 57.5t32.5 48t47 33t56.5 12.5t57.5 -12.5t48 -33t32 -48t11.5 -57.5t-11.5 -57.5t-32 -48t-48 -33t-57.5 -12.5t-56.5 12.5t-47 33t-32.5 48t-12 57.5zM184 1280v417h221v-417l-52 -847h-122z" />
<glyph unicode="&#x22;" horiz-adv-x="926" d="M174 1697h222l-43 -739h-138zM534 1697h218l-38 -739h-146z" />
<glyph unicode="#" horiz-adv-x="1230" d="M36 473v180h253l58 347h-228v181h261l77 436h169l-76 -436h266l77 436h175l-77 -436h199v-181h-232l-62 -347h223v-180h-254l-86 -473h-165l80 473h-267l-86 -473h-164l77 473h-218zM460 653h270l58 347h-270z" />
<glyph unicode="$" horiz-adv-x="1230" d="M99 438l210 47q2 -72 26.5 -131.5t66.5 -103t98.5 -67t122.5 -23.5t122 23t96 63t62.5 95t22.5 119q0 157 -91 237q-23 25 -71 53.5t-120 62.5l-113 52q-85 39 -147 77.5t-101 79.5q-55 55 -82 124t-27 149q0 192 129 310q121 111 298 125v206h110v-206q262 -28 372 -251 l-163 -99q-102 154 -287 154q-99 0 -173 -64q-80 -66 -80 -175q0 -150 224 -243l120 -49q199 -85 292 -183q116 -131 116 -344q0 -102 -31.5 -188.5t-88 -152.5t-133.5 -108.5t-168 -54.5v-223h-110v215q-198 11 -331 135q-144 133 -171 339z" />
<glyph unicode="%" horiz-adv-x="1515" d="M22 1344q0 160 113 273q118 113 270 113q157 0 270 -113t113 -273q0 -159 -116 -270q-113 -113 -267 -113q-152 0 -270 113q-113 113 -113 270zM151 1344q0 -52 20.5 -97.5t55 -78.5t80.5 -52.5t98 -19.5t98.5 19.5t81 52.5t54.5 78.5t20 97.5t-20 97.5t-54.5 80t-81 54 t-98.5 19.5t-98 -19.5t-80.5 -54t-55 -80t-20.5 -97.5zM225 16l965 1717l102 -52l-964 -1717zM727 350q0 162 113 273q118 113 270 113q154 0 270 -113q112 -111 112 -273q0 -160 -115 -270q-116 -111 -267 -111q-154 0 -270 111q-113 110 -113 270zM859 350q0 -50 19.5 -94 t53.5 -78.5t80 -54t98 -19.5t98 19.5t80 54t54.5 78.5t20.5 94q0 53 -19.5 99t-54.5 79.5t-80.5 53t-98.5 19.5q-52 0 -98 -19.5t-80 -53t-53.5 -79.5t-19.5 -99z" />
<glyph unicode="&#x26;" horiz-adv-x="1475" d="M99 463q0 157 97 283q46 58 119 120t176 128q-193 198 -193 366q0 86 30 155t82 117.5t123 74.5t155 26q78 0 148 -25t122 -70.5t82.5 -111.5t30.5 -146q0 -124 -96 -239q-61 -75 -207 -186l345 -424l176 212l144 -123l-199 -240l297 -380h-255l-177 228 q-235 -264 -495 -264q-207 0 -356 143q-149 139 -149 356zM292 463q0 -121 94 -215t212 -94q160 0 377 226l-361 460q-322 -218 -322 -377zM501 1386q0 -113 155 -279l135 108q83 88 83 168q0 182 -189 182q-38 0 -72 -13t-59 -36.5t-39 -56.5t-14 -73z" />
<glyph unicode="'" horiz-adv-x="573" d="M177 1697h222l-43 -739h-138z" />
<glyph unicode="(" horiz-adv-x="662" d="M107 705q0 265 80.5 518t250.5 507h199q-136 -198 -223 -463q-95 -289 -95 -562q0 -275 95 -564q87 -265 223 -463h-199q-170 254 -250.5 507t-80.5 520z" />
<glyph unicode=")" horiz-adv-x="662" d="M25 -322q137 198 223 463q96 289 96 564q0 273 -96 562q-86 265 -223 463h200q169 -254 250 -507t81 -518q0 -267 -81 -520t-250 -507h-200z" />
<glyph unicode="*" horiz-adv-x="1095" d="M151 1331l58 170l257 -93l-9 289h184l-11 -289l263 93l52 -170l-267 -83l175 -229l-142 -112l-155 283l-157 -287l-151 113l170 232z" />
<glyph unicode="+" horiz-adv-x="1254" d="M96 498v161h450v451h162v-451h449v-161h-449v-449h-162v449h-450z" />
<glyph unicode="," horiz-adv-x="500" d="M113 113q0 25 11 49.5t30 43.5t44 30.5t53 11.5q35 0 64 -13.5t50 -36t32 -53t11 -65.5q0 -206 -237 -344l-42 52q70 41 115 92t62 117q-25 -13 -64 -13q-25 0 -48.5 11t-41 28.5t-28.5 41t-11 48.5z" />
<glyph unicode="-" horiz-adv-x="717" d="M113 498v161h491v-161h-491z" />
<glyph unicode="." horiz-adv-x="500" d="M119 116q0 55 38.5 93.5t93.5 38.5t93.5 -38.5t38.5 -93.5t-38.5 -93.5t-93.5 -38.5t-93.5 38.5t-38.5 93.5z" />
<glyph unicode="/" horiz-adv-x="1169" d="M46 -225l921 2180l159 -62l-917 -2176z" />
<glyph unicode="0" horiz-adv-x="1254" d="M52 849q0 181 31.5 328.5t97.5 270.5q155 285 445 285q297 0 448 -285q125 -239 125 -599q0 -359 -125 -598q-159 -287 -448 -287q-293 0 -445 287q-66 123 -97.5 270.5t-31.5 327.5zM251 853q0 -271 77 -454q101 -245 298 -245q198 0 300 245q77 183 77 454 q0 270 -77 456q-102 244 -300 244q-196 0 -298 -244q-77 -186 -77 -456z" />
<glyph unicode="1" horiz-adv-x="1254" d="M231 1504l113 193h405v-1697h-196v1504h-322z" />
<glyph unicode="2" horiz-adv-x="1254" d="M83 0l721 911q147 185 147 304q0 71 -21 130.5t-62.5 103t-101.5 67.5t-136 24q-62 0 -117 -24t-97 -66.5t-69.5 -101.5t-34.5 -127h-205q14 121 56.5 216t109 161t157 100.5t200.5 34.5q120 0 216 -37.5t163.5 -104.5t103 -160t35.5 -206q0 -195 -123 -351l-540 -681 h669v-193h-1071z" />
<glyph unicode="3" horiz-adv-x="1254" d="M104 418h202q8 -62 36.5 -112t70.5 -85.5t95.5 -54t111.5 -18.5q68 0 126 25.5t100.5 70.5t66 106t23.5 132q0 78 -24.5 140.5t-70 104.5t-110.5 64t-145 19v178q325 4 325 270q0 62 -22 116.5t-60.5 93t-91 60.5t-114.5 22q-220 0 -273 -241h-202q67 424 482 424 q100 0 188 -33t151.5 -93.5t100.5 -144.5t37 -186q0 -245 -211 -380q236 -130 236 -423q0 -228 -151 -369q-149 -140 -377 -140q-199 0 -337 119q-149 126 -163 335z" />
<glyph unicode="4" horiz-adv-x="1254" d="M6 248l1004 1520v-1341h186v-179h-186v-248h-197v248h-807zM344 427h469v718z" />
<glyph unicode="5" horiz-adv-x="1254" d="M49 264l166 128q24 -54 60.5 -97.5t83 -74t98.5 -47t105 -16.5q160 0 281 122q118 118 118 289q0 170 -118 288q-121 122 -278 122q-185 0 -304 -152h-46v871h795v-193h-599v-397q102 53 219 53q232 0 380 -176q147 -171 147 -419q0 -264 -176 -433q-177 -168 -431 -168 q-77 0 -151 20.5t-139 59t-119.5 94t-91.5 126.5z" />
<glyph unicode="6" horiz-adv-x="1254" d="M74 506q0 205 177 449l562 778l162 -89l-451 -628q43 23 126 23q226 5 372 -149q145 -147 145 -369q0 -231 -161 -395q-80 -80 -174 -121t-209 -41q-226 0 -387 158q-162 157 -162 384zM270 512q0 -143 104 -251q106 -107 246 -107q71 0 131.5 26.5t113.5 76.5 q105 101 105 241q0 157 -108 260q-107 107 -242 107q-130 0 -240 -110q-110 -105 -110 -243z" />
<glyph unicode="7" horiz-adv-x="1254" d="M68 49l865 1460h-853v188h1187l-1028 -1733z" />
<glyph unicode="8" horiz-adv-x="1254" d="M104 473q0 287 262 408q-222 150 -222 380q0 209 139 337q144 135 340 135q198 0 338 -135q138 -127 138 -337q0 -241 -215 -380q261 -115 261 -408q0 -228 -151 -369q-76 -71 -169 -105.5t-202 -34.5q-220 0 -369 140q-150 141 -150 369zM298 473q0 -65 26 -122t70 -101 t103 -70t126 -26q131 0 230 94q95 96 95 225q0 67 -26.5 125t-71.5 101.5t-103.5 67.5t-123.5 24q-64 0 -122 -24t-103.5 -67.5t-72.5 -101.5t-27 -125zM341 1261q0 -58 22.5 -111t61 -93t89.5 -63.5t109 -23.5q112 0 200 88q88 93 88 203q0 61 -23 114.5t-62 92.5t-92 62 t-111 23t-109 -23t-89.5 -62t-61 -92.5t-22.5 -114.5z" />
<glyph unicode="9" horiz-adv-x="1254" d="M89 1174q0 236 159 394q157 165 389 165q244 0 391 -157q153 -157 153 -386q0 -99 -44 -211t-134 -236l-556 -779l-164 94l450 620q-70 -25 -165 -25q-199 0 -340 157q-139 157 -139 364zM286 1190q0 -149 110 -254q113 -104 241 -104q77 0 141 29t110 78t71 114t25 137 q0 141 -100 247q-102 106 -240 106q-153 0 -255 -106q-103 -104 -103 -247z" />
<glyph unicode=":" horiz-adv-x="500" d="M119 116q0 55 38.5 93.5t93.5 38.5t93.5 -38.5t38.5 -93.5t-38.5 -93.5t-93.5 -38.5t-93.5 38.5t-38.5 93.5zM119 914q0 55 38.5 93.5t93.5 38.5t93.5 -38.5t38.5 -93.5t-38.5 -93.5t-93.5 -38.5t-93.5 38.5t-38.5 93.5z" />
<glyph unicode=";" horiz-adv-x="500" d="M113 113q0 25 11 49.5t30 43.5t44 30.5t53 11.5q35 0 64 -13.5t50 -36t32 -53t11 -65.5q0 -206 -237 -344l-42 52q70 41 115 92t62 117q-25 -13 -64 -13q-25 0 -48.5 11t-41 28.5t-28.5 41t-11 48.5zM119 914q0 55 38.5 93.5t93.5 38.5t93.5 -38.5t38.5 -93.5 t-38.5 -93.5t-93.5 -38.5t-93.5 38.5t-38.5 93.5z" />
<glyph unicode="&#x3c;" horiz-adv-x="1254" d="M68 498v158l1119 467v-209l-837 -338l837 -334v-211z" />
<glyph unicode="=" horiz-adv-x="1254" d="M96 306v160h1061v-160h-1061zM96 691v162h1061v-162h-1061z" />
<glyph unicode="&#x3e;" horiz-adv-x="1254" d="M68 31v211l843 334l-843 338v209l1119 -467v-158z" />
<glyph unicode="?" horiz-adv-x="1208" d="M83 1276q0 194 153 322q150 132 375 132q226 0 370 -132q132 -127 132 -309q0 -162 -193 -360q-193 -197 -193 -318v-148h-212v181q0 141 190 326q191 189 191 322q0 94 -73 168q-82 77 -219 77q-62 0 -115.5 -17.5t-93 -49.5t-61.5 -78.5t-22 -102.5q0 -53 16 -105 l-221 -52q-13 36 -18.5 72t-5.5 72zM463 144q0 71 45 115t112 44q71 0 115 -44t44 -115q0 -67 -44 -113.5t-115 -46.5q-33 0 -61 12.5t-49.5 34t-34 51t-12.5 62.5z" />
<glyph unicode="@" horiz-adv-x="1767" d="M64 849q0 372 248 630q247 254 614 254q328 0 553 -215q224 -210 224 -499q0 -152 -33.5 -269t-104.5 -207q-158 -201 -347 -196q-20 2 -41 13t-38.5 29.5t-29.5 43t-13 52.5q-143 -138 -305 -138q-154 0 -263 119q-114 123 -114 310q0 205 129 362q129 160 328 160 q99 0 176 -36.5t127 -116.5l29 135h160l-112 -580q-20 -88 -20 -124q0 -70 52 -70q78 0 161 135q80 138 80 295q0 279 -174 453q-172 164 -433 164q-280 0 -476 -206t-196 -498q0 -301 209 -505q209 -200 501 -200q288 0 422 110l138 -141q-196 -149 -557 -149 q-390 0 -642 251t-252 634zM589 779q0 -52 16.5 -99t46 -82.5t70.5 -56t91 -20.5q262 0 303 314q16 137 -47 214t-182 77q-66 0 -121 -29t-94 -78t-61 -111t-22 -129z" />
<glyph unicode="A" horiz-adv-x="1500" d="M-28 0l783 1768l776 -1768h-218l-190 424h-743l-187 -424h-221zM466 614h573l-287 691z" />
<glyph unicode="B" horiz-adv-x="1166" d="M126 0v1697h230q602 0 602 -466q0 -211 -160 -320q133 -35 221 -159q91 -124 91 -276q0 -236 -177 -366q-148 -110 -393 -110h-414zM331 190h187q389 0 389 298q0 291 -386 291h-190v-589zM331 945h80q85 0 148 12.5t104 39.5q105 63 105 231q0 281 -350 281h-87v-564z " />
<glyph unicode="C" horiz-adv-x="1420" d="M49 840q0 378 246 636q253 257 631 257q233 0 424 -116v-245q-191 168 -447 168q-275 0 -462 -206q-187 -202 -187 -488q0 -281 187 -486q187 -203 459 -203q245 0 450 177v-251q-204 -119 -443 -119q-188 0 -339.5 62t-275.5 189q-243 251 -243 625z" />
<glyph unicode="D" horiz-adv-x="1417" d="M126 0v1697h331q400 0 653 -209q270 -227 270 -629q0 -419 -270 -647q-253 -212 -659 -212h-325zM331 193h65q345 0 546 145q232 171 232 511q0 655 -778 655h-65v-1311z" />
<glyph unicode="E" horiz-adv-x="1106" d="M138 0v1697h887v-193h-678v-476h650v-193h-650v-642h678v-193h-887z" />
<glyph unicode="F" horiz-adv-x="1003" d="M138 0v1697h798v-193h-592v-479h567v-193h-567v-832h-206z" />
<glyph unicode="G" horiz-adv-x="1672" d="M31 843q0 367 242 630q247 260 608 260q102 0 203 -25t193 -72t169.5 -115.5t132.5 -154.5l-168 -102q-216 276 -521 276q-273 0 -466 -202q-188 -198 -188 -485q0 -139 45.5 -259t139.5 -228q190 -209 453 -209q195 0 357 149q166 146 180 357h-530v193h758v-68 q0 -352 -218 -589q-217 -235 -559 -235q-347 0 -589 261q-242 262 -242 618z" />
<glyph unicode="H" horiz-adv-x="1430" d="M126 0v1697h205v-684h765v684h206v-1697h-206v813h-765v-813h-205z" />
<glyph unicode="I" horiz-adv-x="472" d="M135 0v1697h206v-1697h-206z" />
<glyph unicode="J" horiz-adv-x="764" d="M-58 52l100 176q82 -68 176 -68q154 0 206 165q12 44 19.5 116t7.5 176v1080h205v-1080q0 -653 -447 -653q-156 0 -267 88z" />
<glyph unicode="K" horiz-adv-x="1276" d="M138 0v1697h209v-752l699 752h263l-730 -764l743 -933h-261l-617 785l-97 -97v-688h-209z" />
<glyph unicode="L" horiz-adv-x="806" d="M138 0v1697h209v-1510h499v-187h-708z" />
<glyph unicode="M" horiz-adv-x="1825" d="M13 0l337 1768l567 -1338l562 1338l334 -1768h-212l-186 1129l-498 -1165l-499 1162l-193 -1126h-212z" />
<glyph unicode="N" horiz-adv-x="1665" d="M122 0v1779l1219 -1332v1247h205v-1765l-1218 1332v-1261h-206z" />
<glyph unicode="O" horiz-adv-x="1764" d="M25 849q0 361 251 624q252 260 605 260q355 0 604 -260q251 -261 251 -624q0 -373 -248 -631q-245 -254 -607 -254q-361 0 -608 254q-122 129 -185 285t-63 346zM231 849q0 -290 190 -489q194 -200 460 -200q270 0 460 200q190 199 190 489q0 288 -184 485 q-180 200 -466 200q-281 0 -467 -200q-183 -197 -183 -485z" />
<glyph unicode="P" horiz-adv-x="1070" d="M138 0v1697h254q181 0 311.5 -31.5t210.5 -97.5q144 -116 144 -362q0 -251 -174 -383q-149 -112 -405 -112h-132v-711h-209zM347 900h80q438 0 438 312q0 297 -447 297h-71v-609z" />
<glyph unicode="Q" horiz-adv-x="1764" d="M25 849q0 361 251 624q252 260 605 260q355 0 604 -260q251 -261 251 -624q0 -367 -257 -624l261 -261h-255l-141 152q-218 -152 -463 -152q-361 0 -608 254q-122 129 -185 285t-63 346zM231 849q0 -290 190 -489q194 -200 460 -200q160 0 322 101l-377 380h251l264 -267 q190 185 190 475q0 288 -184 485q-180 200 -466 200q-281 0 -467 -200q-183 -197 -183 -485z" />
<glyph unicode="R" horiz-adv-x="1169" d="M138 0v1697h338q259 0 411 -114q85 -66 128 -156.5t43 -214.5q0 -88 -27.5 -166.5t-78.5 -141t-123 -106t-163 -59.5l518 -739h-251l-486 717h-100v-717h-209zM347 893h80q438 0 438 310q0 306 -447 306h-71v-616z" />
<glyph unicode="S" horiz-adv-x="1141" d="M55 438l209 47q1 -72 25.5 -131.5t67 -103t99.5 -67t123 -23.5t121 23t95 63t63 95t23 119q0 157 -90 237q-48 49 -193 116l-113 52q-85 39 -147 77.5t-99 79.5q-57 55 -83.5 124t-26.5 149q0 200 138 319t334 119q313 0 438 -254l-165 -99q-50 77 -120.5 115.5 t-164.5 38.5q-101 0 -175 -64q-80 -66 -80 -175q0 -150 225 -243l119 -49q201 -85 292 -183q60 -66 88 -151t28 -193q0 -228 -147 -369q-145 -143 -357 -143q-100 0 -190.5 33.5t-161 95.5t-116.5 149.5t-59 195.5z" />
<glyph unicode="T" horiz-adv-x="960" d="M-19 1504v193h1000v-193h-399v-1504h-202v1504h-399z" />
<glyph unicode="U" horiz-adv-x="1427" d="M113 623v1074h206v-1003q0 -231 86 -369q101 -165 309 -165q209 0 311 165q88 140 88 369v1003h206v-1074q0 -292 -159 -469q-161 -190 -446 -190q-278 0 -441 187q-160 188 -160 472z" />
<glyph unicode="V" horiz-adv-x="1380" d="M-31 1697h224l501 -1253l493 1253h224l-717 -1786z" />
<glyph unicode="W" horiz-adv-x="2230" d="M-31 1697h221l466 -1212l460 1248l467 -1248l458 1212h223l-681 -1765l-467 1249l-460 -1249z" />
<glyph unicode="X" horiz-adv-x="1230" d="M-22 0l534 890l-470 807h231l353 -620l371 620h231l-485 -810l511 -887h-229l-399 697l-420 -697h-228z" />
<glyph unicode="Y" horiz-adv-x="1208" d="M-28 1697h234l402 -733l392 733h237l-529 -954v-743h-210v743z" />
<glyph unicode="Z" horiz-adv-x="1169" d="M3 0l829 1504h-716v193h1058l-827 -1504h827v-193h-1171z" />
<glyph unicode="[" horiz-adv-x="720" d="M129 -360v2155h460v-187h-264v-1782h264v-186h-460z" />
<glyph unicode="\" horiz-adv-x="1169" d="M52 1955h184l880 -1955h-183z" />
<glyph unicode="]" horiz-adv-x="720" d="M129 -174h267v1782h-267v187h460v-2155h-460v186z" />
<glyph unicode="^" horiz-adv-x="1230" d="M55 694l436 1003h245l438 -1003h-204l-353 834l-360 -834h-202z" />
<glyph unicode="_" horiz-adv-x="1254" d="M0 -160h1254v-162h-1254v162z" />
<glyph unicode="`" horiz-adv-x="752" d="M151 1550l180 103l273 -373l-92 -62z" />
<glyph unicode="a" horiz-adv-x="1186" d="M39 534q0 223 135 386q140 163 354 163q237 0 359 -169v141h196v-1055h-196v141q-107 -177 -353 -177q-225 0 -363 171q-132 160 -132 399zM239 528q0 -79 22 -149t63.5 -121.5t102 -82.5t135.5 -31q77 0 139 29.5t105 81t66.5 121.5t23.5 152q0 78 -23.5 146.5 t-66.5 119.5t-105 80t-139 29q-74 0 -133.5 -30t-102 -81t-65 -119.5t-22.5 -144.5z" />
<glyph unicode="b" horiz-adv-x="1186" d="M104 0v1890h194v-970q142 163 365 163q215 0 350 -163q135 -168 135 -386q0 -118 -31.5 -218.5t-97.5 -180.5q-134 -171 -363 -171q-243 0 -358 171v-135h-194zM289 528q0 -79 22.5 -149t65 -121.5t104 -82.5t136.5 -31q77 0 139 29.5t105 81t66.5 121.5t23.5 152 q0 78 -23.5 146.5t-67.5 119.5t-106 80t-137 29q-74 0 -134.5 -30t-103.5 -81t-66.5 -119.5t-23.5 -144.5z" />
<glyph unicode="c" horiz-adv-x="938" d="M39 518q0 248 160 408q80 80 180.5 118.5t218.5 38.5q80 0 148.5 -16.5t127.5 -47.5v-234q-102 111 -270 111q-80 0 -147.5 -29t-116 -79t-75 -117.5t-26.5 -142.5q0 -84 25.5 -152t73 -117.5t111.5 -77t143 -27.5q163 0 282 119v-242q-136 -67 -285 -67q-239 0 -396 155 q-154 157 -154 399z" />
<glyph unicode="d" horiz-adv-x="1186" d="M39 534q0 223 135 386q140 163 350 163q241 0 363 -150v957h196v-1890h-196v116q-129 -152 -353 -152q-225 0 -368 171q-66 80 -96.5 180.5t-30.5 218.5zM239 528q0 -79 22 -149t63.5 -121.5t102 -82.5t135.5 -31q77 0 139 29.5t105 81t66.5 121.5t23.5 152 q0 78 -23.5 146.5t-66.5 119.5t-105 80t-139 29q-74 0 -133.5 -30t-102 -81t-65 -119.5t-22.5 -144.5z" />
<glyph unicode="e" horiz-adv-x="1034" d="M39 518q0 127 33 231t96.5 178.5t157 115t214.5 40.5q234 0 360 -163q116 -149 116 -396v-33h-777q3 -70 26.5 -133t64.5 -111t95.5 -75.5t120.5 -27.5q99 0 176 51t127 155l170 -96q-159 -290 -476 -290q-226 0 -366 158q-70 81 -104 179t-34 217zM248 647h562 q-52 264 -273 264q-232 0 -289 -264z" />
<glyph unicode="f" horiz-adv-x="565" d="M68 865v190h89v446q0 416 349 416q73 0 153 -27v-202q-52 40 -122 40q-8 0 -16 -1q-103 -5 -141 -91q-27 -66 -27 -195v-386h267v-190h-267v-865h-196v865h-89z" />
<glyph unicode="g" horiz-adv-x="1183" d="M36 534q0 223 135 386q140 163 350 163q242 0 363 -163v135h196v-1036q0 -298 -99 -446q-121 -177 -402 -177q-108 0 -196.5 32.5t-154 95t-103 151t-42.5 199.5h196q2 -73 25 -129.5t63.5 -95t96.5 -57.5q48 -16 106 -16h19q295 10 295 388v149q-140 -149 -353 -149 q-225 0 -368 171q-66 80 -96.5 180.5t-30.5 218.5zM236 528q0 -157 86 -267q91 -120 237 -120q78 0 140 29t105.5 81t66 122.5t22.5 154.5q0 78 -23.5 146.5t-66.5 119.5t-105 80t-139 29q-74 0 -133.5 -30t-102 -81t-65 -119.5t-22.5 -144.5z" />
<glyph unicode="h" horiz-adv-x="1116" d="M119 0v1890h197v-948q113 141 307 141q374 0 374 -457v-626h-196v604q0 148 -36 212q-52 87 -192 87q-157 0 -220 -138q-37 -90 -37 -286v-479h-197z" />
<glyph unicode="i" horiz-adv-x="524" d="M126 1470q0 59 40 100t95 41q58 0 96.5 -41t38.5 -100q0 -29 -10.5 -53t-28.5 -42.5t-43 -29.5t-53 -11q-29 0 -53 11t-42 29.5t-29 42.5t-11 53zM160 0v1055h196v-1055h-196z" />
<glyph unicode="j" horiz-adv-x="524" d="M126 1470q0 59 40 100t95 41q58 0 96.5 -41t38.5 -100q0 -29 -10.5 -53t-28.5 -42.5t-43 -29.5t-53 -11q-29 0 -53 11t-42 29.5t-29 42.5t-11 53zM160 -604v1659h196v-1659h-196z" />
<glyph unicode="k" horiz-adv-x="974" d="M135 0v1890h196v-1237l383 402h256l-427 -444l473 -611h-255l-356 473l-74 -77v-396h-196z" />
<glyph unicode="l" horiz-adv-x="450" d="M129 0v1890h196v-1890h-196z" />
<glyph unicode="m" horiz-adv-x="1643" d="M113 0v1055h196v-113q101 141 273 141q203 0 296 -187q111 187 309 187q344 0 344 -453v-630h-197v598q0 305 -189 305q-225 0 -225 -385v-518h-196v559q0 344 -187 344q-228 0 -228 -385v-518h-196z" />
<glyph unicode="n" horiz-adv-x="1116" d="M119 0v1055h197v-129q95 157 301 157q380 0 380 -457v-626h-196v604q0 148 -36 212q-52 87 -192 87q-166 0 -220 -138q-37 -90 -37 -283v-482h-197z" />
<glyph unicode="o" horiz-adv-x="1135" d="M28 524q0 239 156 399q155 160 381 160q228 0 383 -160q80 -80 119.5 -180.5t39.5 -218.5q0 -240 -159 -398q-152 -162 -383 -162q-229 0 -381 162q-156 157 -156 398zM225 524q0 -75 25.5 -142.5t72 -117t108.5 -78.5t134 -29q143 0 245 107q101 110 101 260 q0 153 -101 258q-99 108 -245 108q-72 0 -134 -29t-108.5 -78.5t-72 -116t-25.5 -142.5z" />
<glyph unicode="p" horiz-adv-x="1186" d="M104 -604v1659h194v-148q121 176 365 176q215 0 350 -163q135 -168 135 -386q0 -118 -31.5 -218.5t-97.5 -180.5q-134 -171 -363 -171q-226 0 -358 155v-723h-194zM289 528q0 -81 22 -146.5t66 -120.5q91 -120 240 -120q77 0 139 30t105 82t66.5 122.5t23.5 152.5 q0 78 -23.5 146.5t-67.5 119.5t-106 80t-137 29q-74 0 -134.5 -30t-103.5 -81t-66.5 -119.5t-23.5 -144.5z" />
<glyph unicode="q" horiz-adv-x="1186" d="M39 534q0 223 135 386t350 163q244 0 363 -176v148h196v-1659h-196v723q-130 -155 -356 -155t-365 171q-66 80 -96.5 180.5t-30.5 218.5zM236 528q0 -82 22.5 -152.5t65.5 -122.5t104.5 -82t139.5 -30q151 0 242 120q86 110 86 267q0 76 -23.5 144.5t-66.5 119.5 t-103.5 81t-134.5 30q-75 0 -137 -29t-105 -80t-66.5 -119.5t-23.5 -146.5z" />
<glyph unicode="r" horiz-adv-x="736" d="M135 0v1055h196v-141q82 169 267 169q108 0 181 -48l-94 -186q-46 41 -120 41q-234 0 -234 -372v-518h-196z" />
<glyph unicode="s" horiz-adv-x="806" d="M55 196l173 83q50 -135 186 -135q66 0 110 41t44 107q0 35 -22.5 63t-58.5 53t-81 48t-87 45q-113 61 -168 130t-55 154q0 63 23.5 118t66 95t99.5 62.5t123 22.5q211 0 286 -187l-160 -80q-33 87 -126 87q-45 0 -80.5 -30.5t-35.5 -71.5q0 -73 122 -135 q104 -51 160.5 -81.5t69.5 -38.5q121 -92 121 -234q0 -73 -26 -137t-73 -111t-111.5 -73.5t-140.5 -26.5q-273 0 -359 232z" />
<glyph unicode="t" horiz-adv-x="491" d="M31 865v190h113v466h200v-466h193v-190h-193v-865h-200v865h-113z" />
<glyph unicode="u" horiz-adv-x="1083" d="M113 447v608h196v-586q0 -315 237 -315q239 0 239 315v586h196v-608q0 -483 -435 -483q-433 0 -433 483z" />
<glyph unicode="v" horiz-adv-x="926" d="M-49 1055h226l283 -653l289 653h226l-515 -1091z" />
<glyph unicode="w" horiz-adv-x="1524" d="M-49 1055h223l286 -666l305 724l303 -724l282 666h222l-504 -1091l-307 708l-301 -708z" />
<glyph unicode="x" horiz-adv-x="1028" d="M-49 0l457 573l-369 482h231l245 -347l243 347h233l-371 -482l457 -573h-234l-328 433l-328 -433h-236z" />
<glyph unicode="y" horiz-adv-x="1015" d="M-46 1055h230l340 -663l316 663h221l-819 -1659h-226l405 788z" />
<glyph unicode="z" horiz-adv-x="1048" d="M-9 0l690 865h-582v190h962l-684 -865h658v-190h-1044z" />
<glyph unicode="{" horiz-adv-x="697" d="M89 637v164q162 77 162 337v408q0 148 47 224t175 76h135v-190h-87q-70 0 -70 -138v-416q0 -256 -165 -385q165 -131 165 -386v-417q0 -135 70 -135h87v-190h-135q-128 0 -181 80q-41 72 -41 218v408q0 261 -162 342z" />
<glyph unicode="|" horiz-adv-x="835" d="M322 0v1890h190v-1890h-190z" />
<glyph unicode="}" horiz-adv-x="697" d="M89 -221h88q71 0 71 135v417q0 255 163 386q-163 131 -163 385v416q0 138 -71 138h-88v190h136q128 0 180 -81q42 -71 42 -219v-408q0 -260 161 -337v-164q-161 -83 -161 -342v-408q0 -146 -42 -218q-50 -80 -180 -80h-136v190z" />
<glyph unicode="~" horiz-adv-x="1230" d="M52 512q141 276 337 276q60 0 126 -29t141 -87q76 -55 121.5 -84t62.5 -29q100 0 188 196l146 -118q-113 -274 -331 -274q-93 0 -251 116q-163 116 -196 116q-107 0 -200 -187z" />
<glyph unicode="&#xa4;" horiz-adv-x="1318" d="M13 257l232 228q-97 130 -97 303q0 179 97 295l-232 236l119 111l228 -227q125 92 303 92q86 0 165 -25t130 -67l235 227l112 -111l-228 -236q93 -125 93 -295q0 -177 -93 -303l228 -228l-112 -119l-235 233q-24 -21 -57 -37.5t-74 -32.5q-83 -28 -164 -28 q-173 0 -303 98l-228 -233zM309 788q0 -147 99 -257q102 -107 255 -107q144 0 248 107q99 99 99 257q0 72 -26 136.5t-71.5 113t-110 78t-139.5 29.5q-151 0 -252 -106q-102 -116 -102 -251z" />
<glyph unicode="&#xa9;" horiz-adv-x="1865" d="M46 849q0 361 257 614q259 255 630 255q372 0 626 -255q261 -251 261 -614q0 -362 -261 -618q-254 -250 -626 -250q-371 0 -630 250q-257 257 -257 618zM190 849q0 -304 218 -518q218 -209 525 -209q306 0 524 209q218 214 218 518q0 305 -218 514q-218 213 -524 213 q-307 0 -525 -213q-218 -209 -218 -514zM457 843q0 214 144 363q148 147 363 147q229 0 349 -119v-182q-118 163 -343 163q-152 0 -262 -113q-107 -111 -107 -259q0 -152 107 -264q113 -113 262 -113q225 0 343 164v-183q-120 -119 -352 -119q-220 0 -363 148 q-141 150 -141 367z" />
<glyph unicode="&#xab;" horiz-adv-x="1109" d="M49 717l398 541l132 -77l-343 -464l343 -463l-132 -77zM466 717l399 541l132 -77l-344 -464l344 -463l-132 -77z" />
<glyph unicode="&#xac;" horiz-adv-x="1254" d="M64 466v142h1114v-421h-129v279h-985z" />
<glyph unicode="&#xad;" horiz-adv-x="1254" d="M96 498v161h1061v-161h-1061z" />
<glyph unicode="&#xae;" horiz-adv-x="1865" d="M46 849q0 361 257 614q259 255 630 255q372 0 626 -255q261 -251 261 -614q0 -362 -261 -618q-254 -250 -626 -250q-371 0 -630 250q-257 257 -257 618zM190 849q0 -304 218 -518q218 -209 525 -209q306 0 524 209q218 214 218 518q0 305 -218 514q-218 213 -524 213 q-307 0 -525 -213q-218 -209 -218 -514zM592 353v975h418q340 0 340 -264q0 -241 -260 -260l254 -451h-170l-241 451h-200v-451h-141zM733 945h154q166 0 209 10q110 18 110 103q0 132 -225 132h-248v-245z" />
<glyph unicode="&#xb0;" horiz-adv-x="849" d="M104 1119q0 63 24 121t66.5 101.5t100 69.5t123.5 26q67 0 126 -25.5t102 -67.5t68 -100.5t25 -124.5t-25 -124t-68 -101t-102 -68t-126 -25q-65 0 -121.5 24t-99.5 67.5t-68 101.5t-25 125zM190 1119q0 -47 18 -89t48.5 -73.5t72.5 -50.5t89 -19q97 0 164 68 q71 72 71 164q0 48 -19 89.5t-51 72t-74.5 48.5t-90.5 18q-49 0 -90.5 -17t-72 -48t-48 -72.5t-17.5 -90.5z" />
<glyph unicode="&#xb6;" horiz-adv-x="1141" d="M0 1347q0 240 148 360q141 103 389 103h611v-64h-160v-2129h-98v2129h-227v-2129h-87v1264q-264 0 -413 97q-163 116 -163 369z" />
<glyph unicode="&#xb7;" horiz-adv-x="530" d="M151 705q0 47 32 79t84 32q49 0 81 -33.5t32 -77.5q0 -49 -34 -82.5t-79 -33.5q-52 0 -84 32t-32 84z" />
<glyph unicode="&#x2219;" horiz-adv-x="530" d="M151 705q0 47 32 79t84 32q49 0 81 -33.5t32 -77.5q0 -49 -34 -82.5t-79 -33.5q-52 0 -84 32t-32 84z" />
<glyph unicode="&#xbb;" horiz-adv-x="1109" d="M116 254l344 463l-344 464l132 77l399 -541l-399 -540zM534 254l344 463l-344 464l132 77l398 -541l-398 -540z" />
<glyph unicode="&#xd7;" horiz-adv-x="1254" d="M174 239l341 340l-341 341l112 111l340 -340l341 340l113 -111l-341 -341l341 -340l-113 -113l-341 340l-340 -340z" />
<glyph unicode="&#xf7;" horiz-adv-x="1254" d="M96 498v161h1061v-161h-1061zM491 171q0 28 11 52.5t29.5 42.5t42.5 29t52 11q29 0 53 -11t42 -29t29 -42.5t11 -52.5t-11 -52.5t-29 -43t-42 -29t-53 -10.5q-28 0 -52 10.5t-42.5 29t-29.5 43t-11 52.5zM491 988q0 28 11 52t29.5 42.5t42.5 29.5t52 11q29 0 53 -11 t42 -29.5t29 -42.5t11 -52q0 -29 -11 -53t-29 -42.5t-42 -29t-53 -10.5q-28 0 -52 10.5t-42.5 29t-29.5 42.5t-11 53z" />
<glyph unicode="&#xe00;" horiz-adv-x="321" />
<glyph unicode="&#xe01;" horiz-adv-x="1285" d="M96 0v1028q193 281 548 281q234 0 381 -110q165 -120 165 -325v-874h-193v849q0 68 -26 119.5t-73 87t-112 54.5t-142 19q-233 0 -355 -148v-981h-193z" />
<glyph unicode="&#xe02;" horiz-adv-x="1190" d="M64 509q0 304 283 482l-160 215l157 99l248 -314q-335 -250 -335 -482q0 -76 25.5 -141t70 -113t107.5 -74.5t138 -26.5q66 0 122 21t96 59t62 89t22 110v853h193v-853q0 -197 -142 -326q-138 -129 -353 -129q-227 0 -383 151q-151 150 -151 380z" />
<glyph unicode="&#xe03;" horiz-adv-x="1190" d="M22 1170l113 132q91 -38 163 -115l107 99h163v-390q-311 -149 -311 -398q0 -76 25.5 -139.5t70 -109t107.5 -70.5t138 -25q66 0 122 21t96 59t62 89t22 110v853h193v-853q0 -197 -142 -326q-138 -129 -353 -129q-234 0 -383 144q-151 151 -151 376q0 143 76.5 259 t236.5 210v82l-98 -85l-70 75q-46 41 -93.5 74t-93.5 57z" />
<glyph unicode="&#xe04;" horiz-adv-x="1285" d="M96 0v868q0 189 168 319q80 60 173.5 91t206.5 31q223 0 381 -125q165 -127 165 -316v-868h-193v868q0 58 -28.5 107t-77 82.5t-112 52.5t-135.5 19q-145 0 -245 -68q-110 -72 -110 -193v-125h405v-181h-405v-562h-193z" />
<glyph unicode="&#xe05;" horiz-adv-x="1350" d="M96 0v890q0 87 30.5 163.5t85.5 133t133.5 89.5t175.5 33l154 -149l154 149q195 0 316 -125q109 -120 109 -294v-890h-193v890q0 85 -44 151.5t-114 87.5l-228 -226l-228 226q-70 -21 -114 -87.5t-44 -151.5v-147h438v-181h-438v-562h-193z" />
<glyph unicode="&#xe06;" horiz-adv-x="1301" d="M-39 1174l125 128q41 -19 77 -46t65 -63l119 93h162v-295q0 -71 -104 -156q-99 -78 -99 -147v-247q0 -121 124 -205q115 -82 261 -82q69 0 128 19t102 52.5t67.5 80.5t24.5 105v875h193v-875q0 -97 -38.5 -176.5t-107.5 -136.5t-163.5 -88.5t-205.5 -31.5 q-217 0 -385 121v-99h-193v727q0 78 99 154q104 80 104 129v39l-110 -85l-65 71q-41 40 -86.5 76.5t-93.5 62.5z" />
<glyph unicode="&#xe07;" horiz-adv-x="1215" d="M0 1039l190 57l264 -925q116 -5 212.5 27.5t165 95t106 154.5t37.5 208q0 473 -518 473h-43q-22 0 -43 -3v176q28 3 55 3h53q345 0 521 -176q167 -167 167 -473q0 -154 -50.5 -276.5t-144.5 -207t-229 -130t-305 -45.5q-36 0 -71.5 1.5t-71.5 4.5z" />
<glyph unicode="&#xe08;" horiz-adv-x="1260" d="M-31 1052q131 127 281 192t329 65q289 0 460 -180q87 -90 130 -203.5t43 -256.5q0 -316 -215 -503q-113 -98 -261.5 -143t-333.5 -32l-154 642h-141v180h295l154 -647q102 7 187.5 47.5t146.5 108t95 156.5t34 191q0 100 -32 184t-91 145.5t-140.5 96t-182.5 34.5 q-251 0 -447 -196z" />
<glyph unicode="&#xe09;" horiz-adv-x="1270" d="M16 553v180h290v-315q0 -60 23 -108t62 -81.5t93.5 -52.5t116.5 -19q71 0 134.5 22t123.5 63q122 81 122 202v412q0 61 -29 111t-77.5 86.5t-113 56t-135.5 19.5q-127 0 -234 -55q-119 -63 -153 -178h-193q42 192 218 307q163 102 362 102q115 0 209 -31t175 -90 q164 -132 164 -328v-856h-193v129q-147 -148 -389 -148q-107 0 -195 31.5t-150.5 89t-98 138t-35.5 178.5v135h-97z" />
<glyph unicode="&#xe0a;" horiz-adv-x="1186" d="M96 55v1231h193v-1099q58 -17 117 -26.5t118 -6.5q96 3 174.5 29.5t132.5 74t84 111t30 140.5q0 347 -494 430l423 363l157 -87l-233 -212q340 -150 340 -494q0 -236 -157 -374q-85 -75 -198.5 -113t-261.5 -41q-223 -5 -425 74z" />
<glyph unicode="&#xe0b;" horiz-adv-x="1234" d="M-36 1174l122 128q49 -29 84.5 -55.5t57.5 -53.5l119 93h162v-276q0 -65 -88 -148q-83 -83 -83 -135v-540q58 -17 116 -26.5t119 -6.5q195 6 308 98.5t113 256.5q0 350 -479 433l408 360l157 -87l-234 -212q341 -150 341 -494q0 -234 -159 -374q-168 -149 -460 -154 q-221 -5 -424 74v691q0 74 84 147q88 79 88 129v33l-110 -85q-13 18 -27 32.5t-31 32.5q-40 39 -85.5 73.5t-98.5 65.5z" />
<glyph unicode="&#xe0c;" horiz-adv-x="2122" d="M96 0v1028q193 281 548 281q234 0 381 -110q165 -120 165 -325v-430q0 -125 108 -202q55 -41 116.5 -63t128.5 -22q134 0 211.5 71.5t77.5 189.5v868h193v-868q0 -98 -33.5 -178.5t-95 -139t-147 -90.5t-190.5 -32q-212 0 -369 151v-129h-193v846q0 68 -26 120.5 t-73 88.5t-112 55t-142 19q-231 0 -355 -151v-801h193v-177h-386z" />
<glyph unicode="&#xe0d;" horiz-adv-x="2122" d="M96 0v1028q193 281 548 281q234 0 381 -110q165 -120 165 -325v-183q0 -115 96 -176q83 -55 218 -55q68 0 127.5 19.5t104 55t70.5 84t26 108.5v559h193v-868q0 -192 -157 -319q-158 -121 -380 -121q-318 0 -507 221l138 123q148 -165 376 -165q139 0 232 68 q41 31 63 72.5t30 91.5q-19 -18 -54.5 -38t-78.5 -35.5t-91 -26t-92 -10.5q-111 0 -204.5 28.5t-161 81t-104.5 128.5t-37 174v155q0 68 -26 120.5t-73 88.5t-112 55t-142 19q-231 0 -355 -151v-801h193v-177h-386z" />
<glyph unicode="&#xe0e;" horiz-adv-x="1318" d="M0 0v184h129v841q193 284 546 284q229 0 383 -113q163 -121 163 -331v-1380h-193l-273 203l-273 -203h-482v184h441l317 221l270 -188v1138q0 67 -25.5 120.5t-73 90.5t-112.5 56t-142 19q-231 0 -353 -151v-975h-322z" />
<glyph unicode="&#xe0f;" horiz-adv-x="1318" d="M0 0v181h129v847q193 281 546 281q229 0 383 -113q163 -121 163 -325v-1386h-193l-166 159l-181 -175l-175 178l-175 -162h-331v181h273l236 205l172 -180l178 180l169 -154v1129q0 68 -25.5 120.5t-73 88.5t-112.5 55t-142 19q-231 0 -353 -151v-978h-322z" />
<glyph unicode="&#xe10;" horiz-adv-x="1245" d="M-49 1039q263 256 611 256q165 0 287 -58l145 162l160 -107l-144 -160q186 -177 186 -476q0 -312 -215 -499q-114 -99 -262 -143.5t-333 -32.5l-158 660h-139v163h297l154 -647q204 14 334 155q129 139 129 344q0 101 -32 185.5t-91 146t-141.5 95t-182.5 33.5 q-123 0 -235 -48.5t-211 -147.5zM0 -334h267l228 196l174 -171l177 171l160 -141v157l-48 64h241v-457h-193l-157 155l-180 -171l-178 175l-169 -159h-322v181z" />
<glyph unicode="&#xe11;" horiz-adv-x="1318" d="M-22 1174l126 128q40 -22 75 -48t66 -58l118 90h161v-283q0 -63 -103 -147q-99 -80 -99 -151v-294l491 884q96 0 172 -26.5t129 -74.5t80 -115.5t27 -149.5v-929h-193v933q0 147 -111 183l-614 -1116h-174v733q0 90 99 163q103 81 103 126v33l-110 -77q-44 53 -243 196z " />
<glyph unicode="&#xe12;" horiz-adv-x="2193" d="M49 620q3 134 39 247.5t111 212.5q148 198 344 229l165 -158l148 144q92 0 166.5 -31.5t128 -87t82 -131.5t28.5 -167v-434q0 -125 108 -202q57 -41 117 -63t128 -22q133 0 211 71.5t78 189.5v868h193v-868q0 -98 -33 -178.5t-94 -139t-147.5 -90.5t-191.5 -32 q-212 0 -369 151v-129h-193v878q0 193 -139 241l-218 -216l-229 210q-86 -55 -154 -174q-82 -143 -86 -319q-8 -196 64 -314q82 -143 237 -143q116 0 190 98l141 -117q-102 -160 -328 -160q-121 0 -214 45t-157 127.5t-96 200t-30 263.5z" />
<glyph unicode="&#xe13;" horiz-adv-x="2122" d="M96 0v1028q193 281 548 281q234 0 381 -110q165 -120 165 -325v-456q0 -118 77.5 -189.5t211.5 -71.5q67 0 128.5 22t116.5 63q108 77 108 202v842h193v-1286h-193v129q-158 -151 -369 -151q-105 0 -190.5 32t-147 90.5t-95 139t-33.5 178.5v428q0 68 -26 120.5t-73 88.5 t-112 55t-142 19q-231 0 -355 -151v-801h193v-177h-386z" />
<glyph unicode="&#xe14;" horiz-adv-x="1292" d="M49 611q3 143 47.5 263.5t134.5 224.5q187 210 454 210q357 0 511 -278v-1031h-193v970q-92 159 -303 159q-202 0 -334 -165q-120 -148 -124 -353q-6 -189 70 -308q79 -140 231 -140q107 0 184 91l135 -119q-127 -151 -319 -151q-121 0 -213.5 44t-155.5 126t-95 197 t-30 260z" />
<glyph unicode="&#xe15;" horiz-adv-x="1356" d="M49 620q3 134 39 247.5t111 212.5q148 198 344 229l165 -158l148 144q92 0 166.5 -31.5t128 -87t82 -131.5t28.5 -167v-878h-193v878q0 193 -139 241l-218 -216l-229 210q-86 -55 -154 -174q-82 -143 -86 -319q-8 -196 64 -314q82 -143 237 -143q116 0 190 98l141 -117 q-102 -160 -328 -160q-121 0 -214 45t-157 127.5t-96 200t-30 263.5z" />
<glyph unicode="&#xe16;" horiz-adv-x="1285" d="M96 0v1028q193 281 548 281q234 0 381 -110q165 -120 165 -325v-874h-193v849q0 68 -26 119.5t-73 87t-112 54.5t-142 19q-233 0 -355 -148v-800h193v-181h-386z" />
<glyph unicode="&#xe17;" horiz-adv-x="1285" d="M96 0v1286h193v-132q169 155 399 155q110 0 202.5 -32t159 -90t103.5 -141.5t37 -183.5v-862h-193v840q0 66 -23 119.5t-63.5 91t-99.5 58t-130 20.5q-141 0 -267 -83q-125 -84 -125 -203v-843h-193z" />
<glyph unicode="&#xe18;" horiz-adv-x="1183" d="M58 975q0 140 163 237q159 93 352 93q97 0 188.5 -26t166 -74.5t127.5 -118t74 -153.5h-209q-19 44 -56 80t-85.5 61t-105 38.5t-114.5 13.5q-105 0 -206 -46q-92 -42 -92 -96q0 -80 356 -131q521 -84 521 -448q0 -201 -180 -316q-162 -105 -418 -105q-113 0 -227 17.5 t-233 53.5v571l193 62v-495q127 -36 261 -36q165 0 276 58q132 63 132 190q0 214 -360 270q-266 44 -361 83q-163 74 -163 217z" />
<glyph unicode="&#xe19;" horiz-adv-x="1285" d="M96 424v862h193v-839q0 -65 22.5 -119.5t63.5 -92t100 -58t129 -20.5q71 0 138 22t129 63q126 80 126 202v842h193v-1286h-193v132q-85 -80 -185.5 -117t-213.5 -37q-111 0 -203 31.5t-158.5 90.5t-103.5 140.5t-37 183.5z" />
<glyph unicode="&#xe1a;" horiz-adv-x="1285" d="M96 418v868h193v-868q0 -121 110 -193q50 -33 109.5 -50.5t135.5 -17.5q72 0 135.5 19t112 52.5t77 81.5t28.5 108v868h193v-868q0 -190 -165 -314q-80 -66 -174 -96t-207 -30q-225 0 -387 126q-161 124 -161 314z" />
<glyph unicode="&#xe1b;" horiz-adv-x="1285" d="M96 418v868h193v-868q0 -121 110 -193q50 -33 109.5 -50.5t135.5 -17.5q72 0 135.5 19t112 52.5t77 81.5t28.5 108v1207h193v-1207q0 -190 -165 -314q-80 -66 -174 -96t-207 -30q-225 0 -387 126q-161 124 -161 314z" />
<glyph unicode="&#xe1c;" horiz-adv-x="1662" d="M0 1286h424v-179h-179l193 -721l308 900h171l308 -900l241 900h197l-344 -1286h-156l-334 970l-334 -970h-151z" />
<glyph unicode="&#xe1d;" horiz-adv-x="1662" d="M0 1286h424v-179h-179l193 -721l308 900h171l308 -900l329 1239h195l-430 -1625h-156l-334 970l-334 -970h-151z" />
<glyph unicode="&#xe1e;" horiz-adv-x="1662" d="M0 1286h196l242 -900l308 900h171l308 -900l241 900h197l-344 -1286h-156l-334 970l-334 -970h-151z" />
<glyph unicode="&#xe1f;" horiz-adv-x="1662" d="M0 1286h196l242 -900l308 900h171l308 -900l332 1239h195l-433 -1625h-156l-334 970l-334 -970h-151z" />
<glyph unicode="&#xe20;" horiz-adv-x="1318" d="M0 0v181h129v847q193 281 546 281q236 0 383 -110q163 -120 163 -325v-874h-193v849q0 68 -25.5 119.5t-73 87t-112.5 54.5t-142 19q-234 0 -353 -148v-981h-322z" />
<glyph unicode="&#xe21;" horiz-adv-x="1285" d="M96 0v1286h193v-842q0 -122 125 -202q63 -41 130 -63t137 -22q71 0 130 20.5t99.5 58t63.5 92t23 119.5v839h193v-862q0 -102 -37 -183.5t-103 -140.5t-158.5 -90.5t-203.5 -31.5q-113 0 -213.5 37t-185.5 117v-132h-193z" />
<glyph unicode="&#xe22;" horiz-adv-x="1282" d="M49 414q0 114 77 209q62 85 150 123q-39 14 -75 37.5t-63.5 55.5t-44 70.5t-16.5 81.5q0 67 31.5 123.5t86.5 98t129.5 65.5t160.5 24q110 0 209 -35v-177q-75 17 -127 25t-79 8q-212 0 -212 -132q0 -142 252 -142h166v-180h-138q-58 0 -113 -19t-98.5 -52.5t-70 -80 t-26.5 -99.5q0 -60 28.5 -107t80 -81t125.5 -52t165 -18q184 0 347 107v1019h193v-1093q-188 -212 -540 -212q-143 0 -255.5 31.5t-192.5 97.5q-150 119 -150 304z" />
<glyph unicode="&#xe23;" horiz-adv-x="1212" d="M49 454h193q0 -151 114 -233q98 -67 252 -67q70 0 134.5 17t113 48t77 75t28.5 98q0 164 -353 200q-247 23 -363 77q-168 78 -168 242t154 276q152 115 361 115q107 0 200 -26t166 -74t121 -116.5t62 -152.5h-202q-68 190 -347 190q-61 0 -118.5 -16t-101.5 -42.5 t-70 -60.5t-26 -71q0 -137 371 -161q507 -36 507 -364q0 -202 -166 -322q-159 -111 -387 -111q-235 0 -383 118q-85 66 -127 154.5t-42 206.5z" />
<glyph unicode="&#xe24;" horiz-adv-x="1285" d="M96 0v1028q193 281 548 281q234 0 381 -110q165 -120 165 -325v-1356h-193v1331q0 68 -26 119.5t-73 87t-112 54.5t-142 19q-233 0 -355 -148v-800h193v-181h-386z" />
<glyph unicode="&#xe25;" horiz-adv-x="1315" d="M49 399q0 204 154 353q160 151 423 151q247 0 399 -135v190q-14 34 -47 65.5t-77.5 55t-98 37t-108.5 13.5q-280 0 -382 -196h-205q30 91 84.5 160.5t131 117.5t170 73t198.5 25q207 0 355 -100q135 -88 172 -215v-994h-193v518q-23 44 -63 82.5t-92 65t-114 42.5 t-130 16q-87 0 -158 -25t-121 -68.5t-77.5 -103t-27.5 -128.5q0 -49 17 -91.5t47 -74.5t71 -51t89 -19q101 0 193 58l113 -138q-120 -99 -306 -99q-180 0 -303 123q-114 119 -114 292z" />
<glyph unicode="&#xe26;" horiz-adv-x="1318" d="M0 0v181h129v847q193 281 546 281q236 0 383 -110q163 -120 163 -325v-1356h-193v1331q0 68 -25.5 119.5t-73 87t-112.5 54.5t-142 19q-234 0 -353 -148v-981h-322z" />
<glyph unicode="&#xe27;" horiz-adv-x="1218" d="M49 399h196q100 -242 347 -242q187 0 292 152q45 68 69.5 152t24.5 183q0 194 -94 334q-107 151 -292 151q-250 0 -341 -242h-202q51 198 212 312q147 110 331 110q273 0 430 -199q148 -181 148 -466q0 -143 -36.5 -259.5t-111.5 -207.5q-157 -199 -430 -199 q-184 0 -331 108q-161 115 -212 313z" />
<glyph unicode="&#xe28;" horiz-adv-x="1285" d="M96 0v862q0 185 168 316q157 117 380 117q132 0 230 -41l126 145l154 -107l-112 -129q148 -124 148 -301v-862h-193v862q0 58 -28.5 105t-77 81t-112 52.5t-135.5 18.5q-76 0 -135.5 -17t-109.5 -50q-110 -72 -110 -190v-126h405v-180h-405v-556h-193z" />
<glyph unicode="&#xe29;" horiz-adv-x="1301" d="M96 418v868h193v-868q0 -121 110 -193q50 -33 109.5 -50.5t135.5 -17.5q72 0 135.5 19t112 52.5t77 81.5t28.5 108v171h-374v243l98 -64h276v518h193v-518h129v-179h-129v-171q0 -190 -165 -314q-80 -66 -174 -96t-207 -30t-206.5 30.5t-173.5 90.5q-168 130 -168 319z " />
<glyph unicode="&#xe2a;" horiz-adv-x="1315" d="M49 399q0 204 154 353q160 151 423 151q247 0 399 -135v190q-14 34 -47 65.5t-77.5 55t-98 37t-108.5 13.5q-280 0 -382 -196h-205q30 91 84.5 160.5t131 117.5t170 73t198.5 25q70 0 131.5 -11.5t116.5 -33.5l122 135l157 -107q-26 -31 -55 -64t-61 -65q80 -69 116 -169 v-994h-193v518q-23 44 -63 82.5t-92 65t-114 42.5t-130 16q-87 0 -158 -25t-121 -68.5t-77.5 -103t-27.5 -128.5q0 -49 17 -91.5t47 -74.5t71 -51t89 -19q101 0 193 58l113 -138q-120 -99 -306 -99q-180 0 -303 123q-114 119 -114 292z" />
<glyph unicode="&#xe2b;" horiz-adv-x="1301" d="M96 0v1286h193v-427l659 443l219 -57l-293 -203q77 -14 141.5 -47.5t110 -81.5t70.5 -109t25 -129v-675h-193v644q0 61 -26.5 112t-72 88.5t-108.5 58t-133 20.5l-399 -276v-647h-193z" />
<glyph unicode="&#xe2c;" horiz-adv-x="1662" d="M0 1286h196l242 -900l308 900h171l308 -900l128 479q8 22 10.5 43t2.5 40q0 171 -182 171h-110v167h177q212 0 250 135l34 108h197l-54 -185q-37 -140 -193 -193q83 -61 83 -176q0 -36 -6 -61l-243 -914h-156l-334 970l-334 -970h-151z" />
<glyph unicode="&#xe2d;" horiz-adv-x="1402" d="M49 644q0 45 2 82t10 68h504v-180h-323q4 -101 40.5 -185t97 -144t142 -94t178.5 -34q101 0 185.5 36t146 100.5t95 154t33.5 196.5q0 105 -33 194.5t-93.5 154t-145 100.5t-188.5 36q-271 0 -405 -245h-209q179 425 614 425q297 0 474 -186q179 -189 179 -479 q0 -292 -179 -481q-179 -185 -474 -185q-293 0 -472 185q-179 189 -179 481z" />
<glyph unicode="&#xe2e;" horiz-adv-x="1402" d="M49 644q0 45 2 82t10 68h504v-180h-323q4 -101 40.5 -185t97 -144t142 -94t178.5 -34q101 0 185.5 36t146 100.5t95 154t33.5 196.5q0 105 -33 194.5t-93.5 154t-145 100.5t-188.5 36q-271 0 -405 -245h-209q179 425 614 425q159 0 291 -61l132 151l147 -101l-129 -147 q212 -189 212 -507q0 -292 -179 -481q-179 -185 -474 -185q-293 0 -472 185q-179 189 -179 481z" />
<glyph unicode="&#xe2f;" horiz-adv-x="1245" d="M31 1061q0 123 117 225h251q-28 -13 -56.5 -37t-51.5 -54t-36 -63t-13 -61q0 -154 221 -154q341 0 476 206v163h193v-1286h-193v893q-204 -147 -470 -147q-213 0 -331 94q-107 80 -107 221z" />
<glyph unicode="&#xe30;" horiz-adv-x="481" d="M49 160v214h193v-91h209v-123h-402zM49 914v212h193v-91h209v-121h-402z" />
<glyph unicode="&#xe31;" d="M-562 1448v288h191v-128h677v-160h-868z" />
<glyph unicode="&#xe32;" horiz-adv-x="910" d="M16 1039v203q121 67 303 67q245 0 375 -139q119 -118 119 -324v-846h-193v794q0 153 -79 244t-232 91q-152 0 -293 -90z" />
<glyph unicode="&#xe33;" horiz-adv-x="910" d="M-377 1614q0 34 14 65t39.5 53.5t59 36t71.5 13.5q39 0 72 -13.5t58 -36t39.5 -53.5t14.5 -65q0 -35 -14.5 -65.5t-39.5 -52.5t-58 -35t-72 -13q-38 0 -71.5 13t-59 35t-39.5 52.5t-14 65.5zM-267 1614q0 -68 74 -68t74 68q0 67 -74 67t-74 -67zM16 1039v203 q121 67 303 67q245 0 375 -139q119 -118 119 -324v-846h-193v794q0 153 -79 244t-232 91q-152 0 -293 -90z" />
<glyph unicode="&#xe34;" d="M-1093 1448v160h997v-160h-997z" />
<glyph unicode="&#xe35;" d="M-1093 1448v160h804v160h193v-320h-997z" />
<glyph unicode="&#xe36;" d="M-1093 1448v160h716v6q0 34 14 65t39.5 53.5t59 36t71.5 13.5q39 0 72 -13.5t58 -36t39.5 -53.5t14.5 -65q0 -35 -14.5 -65.5t-39.5 -52.5t-58 -35t-72 -13h-900zM-267 1614q0 -68 74 -68t74 68q0 67 -74 67t-74 -67z" />
<glyph unicode="&#xe37;" d="M-1093 1448v160h547v160h160v-160h97v160h193v-320h-997z" />
<glyph unicode="&#xe38;" d="M-418 -129h322v-386h-193v226h-129v160z" />
<glyph unicode="&#xe39;" d="M-739 -129h288v-224q43 -21 74 -21q88 0 88 62v183h193v-193q0 -44 -22 -79t-60.5 -60.5t-89.5 -39.5t-109 -14q-169 0 -267 107v129h-95v150z" />
<glyph unicode="&#xe3a;" d="M-322 -257q0 25 9.5 48.5t27 40.5t41 28t51.5 11q25 0 48.5 -11t41 -28t28.5 -40.5t11 -48.5q0 -29 -11 -52.5t-28.5 -40.5t-41 -26.5t-48.5 -9.5q-55 0 -92 37t-37 92z" />
<glyph unicode="&#xe3f;" horiz-adv-x="1166" d="M126 0v1697h230h69q29 0 48 -3v242h109v-258q376 -73 376 -447q0 -211 -160 -320q133 -35 221 -159q91 -124 91 -276q0 -230 -162 -354q-141 -113 -366 -122v-251h-109v251h-347zM331 190h187q389 0 389 298q0 291 -386 291h-190v-589zM331 945h80q85 0 148 12.5 t104 39.5q105 63 105 231q0 281 -350 281h-87v-564z" />
<glyph unicode="&#xe40;" horiz-adv-x="450" d="M129 0v1286h193v-1286h-193z" />
<glyph unicode="&#xe41;" horiz-adv-x="803" d="M129 0v1286h193v-1286h-193zM482 0v1286h193v-1286h-193z" />
<glyph unicode="&#xe42;" horiz-adv-x="481" d="M-71 1785q0 49 20.5 88t57.5 66t86.5 41t109.5 14h444v-184h-457q-58 0 -58 -28q0 -30 58 -68q77 -53 105 -94q58 -72 58 -179v-1441h-193v1418q0 100 -114 196q-117 97 -117 171z" />
<glyph unicode="&#xe43;" horiz-adv-x="481" d="M-190 1666q0 77 28.5 140.5t77 108t114.5 70t141 25.5q72 0 136 -22t111 -60t73.5 -89t26.5 -109q0 -80 -85 -165q-80 -80 -80 -160v-1405h-193v1437q0 95 82 168q83 73 83 119q0 111 -154 111q-168 0 -168 -169h-193z" />
<glyph unicode="&#xe44;" horiz-adv-x="481" d="M-199 1859l122 135l187 -165l185 149l229 -260q-84 -71 -127.5 -161.5t-43.5 -203.5v-1353h-193v1322q0 207 162 359l-55 59l-160 -135z" />
<glyph unicode="&#xe45;" horiz-adv-x="910" d="M16 1039v203q121 67 303 67q245 0 375 -139q119 -118 119 -324v-1328h-193v1276q0 153 -79 244t-232 91q-152 0 -293 -90z" />
<glyph unicode="&#xe46;" horiz-adv-x="1282" d="M49 681v226q0 90 29 163t83 125t131 79.5t174 27.5l151 -128l151 128q96 0 173.5 -27.5t132.5 -79.5t84 -125t29 -163v-1389h-193v1389q0 173 -151 219l-223 -190l-228 190q-150 -46 -150 -219v-42h264v-184h-457z" />
<glyph unicode="&#xe47;" d="M-1064 1448v124q0 138 94 217t270 79h601v-128h-592q-180 0 -180 -123v-9h138l174 89l170 -89h186v-160h-196l-160 92l-162 -92h-343z" />
<glyph unicode="&#xe48;" d="M-289 1865v289h193v-289h-193z" />
<glyph unicode="&#xe49;" d="M-488 2049v121h125q148 0 148 -118v-36h386v-151h-570v119q0 65 -64 65h-25z" />
<glyph unicode="&#xe4a;" d="M-515 1865v148q0 177 190 177h61l113 -88l109 88h55q183 0 183 -162v-25h184v-138h-349v157q0 49 -34 49l-148 -113l-152 113q-47 0 -47 -52v-28h93v-126h-258z" />
<glyph unicode="&#xe4b;" d="M-424 1984v136h145v117h172v-117h146v-136h-146v-119h-172v119h-145z" />
<glyph unicode="&#xe4c;" d="M-402 1736v55q0 176 209 176h157v-121h-86q-96 0 -96 -78v-32h-184z" />
<glyph unicode="&#xe4d;" d="M-377 1614q0 34 14 65t39.5 53.5t59 36t71.5 13.5q39 0 72 -13.5t58 -36t39.5 -53.5t14.5 -65q0 -35 -14.5 -65.5t-39.5 -52.5t-58 -35t-72 -13q-38 0 -71.5 13t-59 35t-39.5 52.5t-14 65.5zM-267 1614q0 -68 74 -68t74 68q0 67 -74 67t-74 -67z" />
<glyph unicode="&#xe4e;" d="M-859 1639q0 181 264 236q-61 34 -61 125q0 61 37.5 113t106 89.5t163.5 59t211 21.5q31 0 64 -1.5t65 -5.5v-167q-40 7 -78.5 12t-78.5 5q-66 0 -118 -8t-93 -25q-92 -33 -92 -96q0 -78 147 -64v-151q-55 5 -112 -0.5t-116 -23.5q-125 -37 -125 -102q0 -58 89 -58 q82 0 168 49l77 -132q-124 -67 -254 -67q-57 0 -105.5 14t-84 39t-55 60.5t-19.5 77.5z" />
<glyph unicode="&#xe4f;" horiz-adv-x="1511" d="M96 644q0 273 193 466q196 192 466 192t466 -192q194 -193 194 -466t-194 -467q-193 -193 -466 -193t-466 193q-193 194 -193 467zM193 644q0 -231 163 -399q170 -165 399 -165q233 0 396 165q168 168 168 399q0 232 -168 395q-162 167 -396 167q-232 0 -399 -167 q-163 -168 -163 -395zM353 644q0 166 116 282q120 120 286 120q167 0 284 -120q118 -113 118 -282q0 -168 -118 -288q-114 -114 -284 -114q-166 0 -286 114q-58 62 -87 132.5t-29 155.5z" />
<glyph unicode="&#xe50;" horiz-adv-x="1196" d="M49 482q0 104 40 191t120 162q80 76 178 112.5t211 36.5t211 -36.5t179 -112.5q80 -75 120 -162t40 -191t-40 -191t-120 -162q-81 -76 -179 -112t-211 -36t-211 36t-178 112q-80 75 -120 162t-40 191zM231 482q0 -137 107 -234q106 -97 257 -97t258 97q105 96 105 234 q0 140 -105 235q-106 96 -258 96t-257 -96q-107 -97 -107 -235z" />
<glyph unicode="&#xe51;" horiz-adv-x="1273" d="M49 515q0 204 176 341q166 128 398 128q253 0 426 -131q176 -142 176 -365q0 -240 -219 -420q-199 -167 -466 -200l-93 163q244 27 409 150q175 127 175 307q0 72 -31 132t-85.5 103t-128 66.5t-160.5 23.5q-78 0 -148 -22.5t-122.5 -62.5t-83 -95t-30.5 -118 q0 -38 11.5 -73t33.5 -65t53 -52t68 -33q-45 64 -45 141q0 49 20 91.5t55.5 74.5t82 51t99.5 19q54 0 100 -19t81.5 -51t56 -74.5t20.5 -91.5q0 -67 -32.5 -125t-89 -101.5t-131.5 -68.5t-162 -25q-92 0 -168.5 30.5t-130.5 85t-84.5 127.5t-30.5 159zM521 433q0 -86 99 -86 q101 0 101 86q0 88 -101 88q-99 0 -99 -88z" />
<glyph unicode="&#xe52;" horiz-adv-x="1803" d="M-257 1261l150 116q138 -124 232.5 -265.5t147.5 -298.5q46 -138 79.5 -294t52.5 -342h1110v501q0 66 -44.5 104t-104.5 38q-99 0 -157 -87v-457h-193v463q-71 81 -176 81q-39 0 -73.5 -11t-60.5 -31t-42 -46t-20 -54h6q2 0 9 3h22q47 0 89.5 -16.5t74 -44.5t50.5 -67.5 t19 -83.5t-19 -81.5t-50.5 -65.5t-74 -44.5t-89.5 -16.5q-48 0 -89.5 16.5t-73 44.5t-49.5 65.5t-18 81.5v184q0 74 31 137t84.5 109t124 72t149.5 26q80 0 146.5 -24.5t126.5 -69.5q113 94 253 94q69 0 131 -22t108.5 -62t74 -96t27.5 -123v-694h-1479q-38 471 -139 755 q-97 281 -346 506zM595 469q0 -80 86 -80q87 0 87 80q0 81 -87 81q-86 0 -86 -81z" />
<glyph unicode="&#xe53;" horiz-adv-x="1515" d="M96 215v441q0 137 122 240q124 101 283 101q173 0 290 -94q123 94 270 94q71 0 136 -22t114 -61.5t78 -95t29 -121.5v-697h-193v681q0 139 -164 139q-110 0 -174 -84v-736h-193v743q-66 77 -193 77q-41 0 -78.5 -13t-67.5 -35t-48 -51.5t-18 -64.5v-215q30 10 64 10 q54 0 100 -19t81.5 -51t56 -74.5t20.5 -91.5t-20.5 -90.5t-56 -73t-81.5 -49.5t-100 -18q-53 0 -99.5 18t-81.5 49.5t-55.5 73t-20.5 90.5zM254 215q0 -86 99 -86q101 0 101 86q0 88 -101 88q-99 0 -99 -88z" />
<glyph unicode="&#xe54;" horiz-adv-x="1369" d="M49 454q-5 218 163 362q85 76 186 112t219 36h444q132 0 132 361h193q5 -228 -67 -370q-87 -167 -258 -167h-444q-78 0 -147.5 -24.5t-120.5 -69t-80 -105.5t-27 -135q3 -76 29.5 -132.5t81.5 -96.5q50 -37 109 -55.5t130 -18.5q28 0 76.5 7t119.5 19q-113 104 -113 225 q0 53 21 98.5t56.5 78.5t82.5 52t101 19q53 0 99.5 -19t81.5 -51t55.5 -76t20.5 -93q0 -125 -116 -199h27q12 0 22 -3q172 -28 263 -110l-116 -138q-63 36 -130.5 55.5t-139.5 19.5q-26 0 -72 -8t-111 -22q-66 -12 -126 -18.5t-115 -6.5q-221 0 -364 115q-162 132 -166 358z M835 411q0 -86 101 -86q99 0 99 86q0 87 -99 87q-101 0 -101 -87z" />
<glyph unicode="&#xe55;" horiz-adv-x="1369" d="M49 454q-3 89 25 166t86 148q113 132 294 174q-36 60 -36 113q0 49 22 93t58.5 77t85.5 51.5t104 18.5q56 0 105.5 -18t86.5 -50t57.5 -76t20.5 -96t-25 -91h128q84 0 113 119q14 68 19 242h193q3 -113 -15.5 -204t-54.5 -166q-82 -167 -255 -167h-444 q-78 0 -147.5 -24.5t-120.5 -69t-80 -105.5t-27 -135q3 -76 29.5 -132.5t81.5 -96.5q50 -37 109 -55.5t130 -18.5q28 0 76.5 7t119.5 19q-113 104 -113 225q0 53 21 98.5t56.5 78.5t82.5 52t101 19q53 0 99.5 -19t81.5 -51t55.5 -76t20.5 -93q0 -125 -116 -199h27 q12 0 22 -3q172 -28 263 -110l-116 -138q-63 36 -130.5 55.5t-139.5 19.5q-26 0 -72 -8t-111 -22q-66 -12 -126 -18.5t-115 -6.5q-221 0 -364 115q-158 132 -166 358zM592 1055q0 -91 96 -91q97 0 97 91q0 36 -29 63t-68 27q-38 0 -67 -27t-29 -63zM835 411q0 -86 101 -86 q99 0 99 86q0 87 -99 87q-101 0 -101 -87z" />
<glyph unicode="&#xe56;" horiz-adv-x="1285" d="M-174 1215l146 110q240 -187 314 -425q85 48 177.5 72.5t195.5 24.5q242 0 412 -141q85 -71 125.5 -161.5t40.5 -199.5q0 -223 -173 -373q-172 -144 -431 -144q-237 0 -388 118q-75 61 -113.5 129.5t-38.5 148.5q0 51 20 94.5t55.5 75.5t82.5 49.5t102 17.5q54 0 100 -19 t81.5 -50.5t56 -74t20.5 -90.5q0 -132 -120 -200q30 -12 65.5 -17.5t76.5 -5.5q86 0 161.5 25t131 70t88 107.5t32.5 138.5q0 69 -31 127.5t-84 102t-123 67.5t-149 24q-207 0 -380 -153l-153 37q-55 295 -300 515zM254 377q0 -91 99 -91q101 0 101 91q0 89 -101 89 q-99 0 -99 -89z" />
<glyph unicode="&#xe57;" horiz-adv-x="1880" d="M96 218v435q0 140 122 243q124 101 283 101q173 0 290 -94q123 94 270 94q71 0 136 -22t114 -62t78 -96t29 -123v-528q28 0 59.5 10.5t56.5 31t41.5 48t16.5 63.5v648q0 201 199 358l154 -110q-160 -97 -160 -260v-627q0 -82 -40 -147.5t-114 -110.5t-176.5 -67 t-229.5 -16v691q0 33 -13.5 60t-36.5 45t-52 27.5t-62 9.5q-111 0 -174 -87v-733h-193v739q-69 81 -193 81q-41 0 -78.5 -13.5t-67.5 -35.5t-48 -52.5t-18 -65.5v-206q36 7 64 7q54 0 100 -19t81.5 -51t56 -74.5t20.5 -91.5q0 -50 -20.5 -92.5t-56 -74t-81.5 -49.5t-100 -18 q-53 0 -99.5 18t-81.5 49.5t-55.5 74t-20.5 92.5zM254 218q0 -86 99 -86q101 0 101 86q0 88 -101 88q-99 0 -99 -88z" />
<glyph unicode="&#xe58;" horiz-adv-x="1411" d="M49 457q0 237 199 389q185 138 476 138q103 0 190.5 -9t162.5 -27q46 80 73.5 172t39.5 205l187 -30q-22 -161 -76 -296t-144 -253q-193 67 -402 67q-111 0 -205.5 -28t-162.5 -76t-106.5 -113t-38.5 -139q0 -99 67 -181q27 -36 57.5 -59.5t63.5 -35.5l217 202l295 -239 l83 49q-147 47 -147 184q0 44 18.5 84t51 69.5t74.5 47t91 17.5t91.5 -19t73.5 -49.5t50 -71.5t19 -84q0 -206 -433 -402l-264 205l-199 -205q-167 44 -277 163q-66 67 -95.5 149t-29.5 176zM1025 377q0 -79 88 -79q86 0 86 79q0 83 -86 83q-88 0 -88 -83z" />
<glyph unicode="&#xe59;" horiz-adv-x="1511" d="M49 498q0 221 154 361q80 72 172.5 108t206.5 36q212 0 369 -138q91 138 252 138q36 0 73.5 -10t73.5 -32q49 154 22 364h196q4 -25 6 -48.5t2 -48.5q0 -339 -177 -517l-101 28q-9 84 -95 84q-96 0 -110 -115q89 -133 144 -307.5t82 -391.5l-193 -25q-107 839 -544 839 q-72 0 -134 -25.5t-108 -70t-72 -104t-26 -128.5q0 -216 147 -305q-15 36 -15 77q0 49 20 92.5t55 76t81 51.5t100 19q53 0 100 -19t81.5 -51.5t55 -76t20.5 -92.5q0 -63 -29 -115.5t-77 -90t-111.5 -59t-132.5 -21.5q-239 0 -366 157q-122 146 -122 360zM534 267 q0 -90 96 -90q97 0 97 90q0 89 -97 89q-96 0 -96 -89z" />
<glyph unicode="&#xe5a;" horiz-adv-x="1582" d="M31 1061q0 113 117 225h251q-28 -10 -55.5 -34t-50.5 -54.5t-37 -64.5t-14 -62q0 -154 221 -154q331 0 476 206v163h193v-267q118 63 160 135v132h193v-1286h-193v926q-53 -36 -93 -58t-67 -33v-835h-193v893q-204 -147 -470 -147q-180 0 -295 67q-143 82 -143 248z" />
<glyph unicode="&#xe5b;" horiz-adv-x="2353" d="M96 653q0 207 97 366q110 193 305 193q154 0 254 -129q91 -119 91 -279q0 -121 -49 -209q-64 -107 -174 -107q-42 0 -78 18t-61.5 49t-39.5 70t-14 83q0 94 52.5 154.5t137.5 60.5h23q10 0 23 -3q-33 148 -162 148t-192 -161q-26 -61 -39 -126t-13 -140q0 -162 65 -278 q83 -135 231 -135q188 0 303 213q86 149 114 375q18 135 91 135q107 0 164 -276q3 36 7 74t10 74q14 97 67 97q87 0 161 -203q0 145 61 145q41 0 77.5 -43t72.5 -128q29 122 77 122q40 0 113 -108q19 60 65 60q377 0 377 -84q0 -44 -168 -67l-193 -13q-24 -86 -74 -86 q-22 0 -52 47q-10 17 -19 35t-22 36q-25 -157 -97 -157q-38 0 -116 154q-33 -189 -106 -189q-37 0 -67 90q-13 31 -23 61t-20 61q-61 -251 -153 -251q-49 0 -77 104l-40 153q-53 -234 -183 -383q-149 -183 -369 -183q-215 0 -335 180q-50 80 -76.5 173t-26.5 207zM540 711 q0 -100 77 -100t77 100q0 99 -77 99t-77 -99z" />
<glyph unicode="&#x2000;" horiz-adv-x="1255" />
<glyph unicode="&#x2001;" horiz-adv-x="2510" />
<glyph unicode="&#x2002;" horiz-adv-x="1255" />
<glyph unicode="&#x2003;" horiz-adv-x="2510" />
<glyph unicode="&#x2004;" horiz-adv-x="836" />
<glyph unicode="&#x2005;" horiz-adv-x="627" />
<glyph unicode="&#x2006;" horiz-adv-x="418" />
<glyph unicode="&#x2007;" horiz-adv-x="418" />
<glyph unicode="&#x2008;" horiz-adv-x="313" />
<glyph unicode="&#x2009;" horiz-adv-x="502" />
<glyph unicode="&#x200a;" horiz-adv-x="139" />
<glyph unicode="&#x200c;" />
<glyph unicode="&#x200d;" />
<glyph unicode="&#x2010;" horiz-adv-x="717" d="M113 498v161h491v-161h-491z" />
<glyph unicode="&#x2011;" horiz-adv-x="717" d="M113 498v161h491v-161h-491z" />
<glyph unicode="&#x2012;" horiz-adv-x="717" d="M113 498v161h491v-161h-491z" />
<glyph unicode="&#x2013;" horiz-adv-x="1254" d="M96 498v161h1061v-161h-1061z" />
<glyph unicode="&#x2014;" horiz-adv-x="2507" d="M96 498v161h2316v-161h-2316z" />
<glyph unicode="&#x2018;" horiz-adv-x="585" d="M129 1322q0 224 263 378l46 -56q-160 -88 -193 -229q12 7 30.5 9.5t40.5 2.5q28 0 53 -11.5t44.5 -31.5t31.5 -45t12 -53t-12 -55t-33 -47.5t-48.5 -33t-60.5 -12.5q-39 0 -71.5 16t-55 41t-35 58t-12.5 69z" />
<glyph unicode="&#x2019;" horiz-adv-x="585" d="M129 1553q0 28 11.5 54.5t33 47t49 33t60.5 12.5q39 0 71 -15.5t55 -40.5t35.5 -58t12.5 -68q0 -227 -264 -380l-45 58q160 88 193 228q-13 -8 -31 -10.5t-40 -2.5q-28 0 -53 12t-45 31.5t-31.5 44.5t-11.5 54z" />
<glyph unicode="&#x201c;" horiz-adv-x="1042" d="M129 1322q0 224 263 378l46 -56q-160 -88 -193 -229q12 7 30.5 9.5t40.5 2.5q28 0 53 -11.5t44.5 -31.5t31.5 -45t12 -53t-12 -55t-33 -47.5t-48.5 -33t-60.5 -12.5q-39 0 -71.5 16t-55 41t-35 58t-12.5 69zM586 1322q0 224 263 378l44 -56q-158 -88 -193 -229 q25 12 72 12q29 0 54 -11.5t44.5 -31.5t31.5 -45t12 -53t-12 -55t-33 -47.5t-49.5 -33t-61.5 -12.5q-37 0 -69.5 16t-55 41t-35 58t-12.5 69z" />
<glyph unicode="&#x201d;" horiz-adv-x="1042" d="M129 1553q0 28 11.5 54.5t33 47t49 33t60.5 12.5q39 0 71 -15.5t55 -40.5t35.5 -58t12.5 -68q0 -227 -264 -380l-45 58q160 88 193 228q-13 -8 -31 -10.5t-40 -2.5q-28 0 -53 12t-45 31.5t-31.5 44.5t-11.5 54zM586 1553q0 28 11.5 54.5t33 47t48.5 33t60 12.5 q40 0 72 -15.5t55 -40.5t35.5 -58t12.5 -68q0 -224 -264 -380l-46 58q161 88 194 228q-13 -8 -31 -10.5t-40 -2.5q-28 0 -53.5 12t-45 31.5t-31 44.5t-11.5 54z" />
<glyph unicode="&#x2022;" horiz-adv-x="1157" d="M96 644q0 198 143 340q141 142 340 142q197 0 341 -142q141 -144 141 -340q0 -200 -141 -341q-143 -143 -341 -143q-202 0 -340 143q-143 138 -143 341z" />
<glyph unicode="&#x2026;" horiz-adv-x="1755" d="M160 116q0 55 38.5 93.5t93.5 38.5t93.5 -38.5t38.5 -93.5t-38.5 -93.5t-93.5 -38.5t-93.5 38.5t-38.5 93.5zM746 116q0 55 38.5 93.5t93.5 38.5t93.5 -38.5t38.5 -93.5t-38.5 -93.5t-93.5 -38.5t-93.5 38.5t-38.5 93.5zM1331 116q0 55 38.5 93.5t93.5 38.5t93.5 -38.5 t38.5 -93.5t-38.5 -93.5t-93.5 -38.5t-93.5 38.5t-38.5 93.5z" />
<glyph unicode="&#x202f;" horiz-adv-x="502" />
<glyph unicode="&#x205f;" horiz-adv-x="627" />
<glyph unicode="&#xe000;" horiz-adv-x="1055" d="M0 1055h1055v-1055h-1055v1055z" />
<glyph unicode="&#xf700;" horiz-adv-x="1245" d="M-49 1039q263 256 611 256q165 0 287 -58l145 162l160 -107l-144 -160q186 -177 186 -476q0 -312 -215 -499q-114 -99 -262 -143.5t-333 -32.5l-158 660h-139v163h297l154 -647q204 14 334 155q129 139 129 344q0 101 -32 185.5t-91 146t-141.5 95t-182.5 33.5 q-123 0 -235 -48.5t-211 -147.5z" />
<glyph unicode="&#xf701;" d="M-1350 1448v160h932v-160h-932z" />
<glyph unicode="&#xf702;" d="M-1350 1448v160h739v160h193v-320h-932z" />
<glyph unicode="&#xf703;" d="M-1350 1448v160h653v6q0 34 14 65t38.5 53.5t58 36t71.5 13.5q39 0 72 -13.5t58 -36t39.5 -53.5t14.5 -65q0 -35 -14.5 -65.5t-39.5 -52.5t-58 -35t-72 -13h-835zM-589 1614q0 -68 74 -68t74 68q0 67 -74 67t-74 -67z" />
<glyph unicode="&#xf704;" d="M-1350 1448v160h482v160h160v-160h97v160h193v-320h-932z" />
<glyph unicode="&#xf705;" d="M-644 1448v353h193v-353h-193z" />
<glyph unicode="&#xf706;" d="M-705 1639v129h132q159 0 159 -121v-39h469v-160h-663v124q0 67 -67 67h-30z" />
<glyph unicode="&#xf707;" d="M-1234 1448v175q0 212 228 212h73l135 -102l129 102h68q218 0 218 -191v-36h383v-160h-579v188q0 58 -41 58l-178 -135l-183 135q-58 0 -58 -61v-35h113v-150h-308z" />
<glyph unicode="&#xf708;" d="M-896 1583v147h160v135h193v-135h160v-147h-160v-135h-193v135h-160z" />
<glyph unicode="&#xf709;" d="M-768 1448v56q0 187 218 187h167v-129h-93q-100 0 -100 -80v-34h-192z" />
<glyph unicode="&#xf70a;" d="M-289 1448v353h193v-353h-193z" />
<glyph unicode="&#xf70b;" d="M-620 1639v129h132q157 0 157 -121v-39h405v-160h-598v124q0 67 -68 67h-28z" />
<glyph unicode="&#xf70c;" d="M-1090 1448v175q0 212 228 212h74l135 -102l129 102h67q218 0 218 -191v-36h223v-160h-417v188q0 58 -43 58l-177 -135l-182 135q-58 0 -58 -61v-35h111v-150h-308z" />
<glyph unicode="&#xf70d;" d="M-451 1583v147h162v135h193v-135h160v-147h-160v-135h-193v135h-162z" />
<glyph unicode="&#xf70e;" d="M-418 1448v56q0 187 219 187h168v-129h-95q-99 0 -99 -80v-34h-193z" />
<glyph unicode="&#xf70f;" horiz-adv-x="2122" d="M96 0v1028q193 281 548 281q234 0 381 -110q165 -120 165 -325v-472q0 -58 24.5 -103.5t67.5 -77t102 -48t128 -16.5q67 0 126 16.5t102.5 48t67.5 77t24 103.5v884h193v-884q0 -192 -147 -309q-148 -115 -366 -115q-220 0 -367 115q-148 117 -148 309v444 q0 68 -26 120.5t-73 88.5t-112 55t-142 19q-231 0 -355 -151v-801h193v-177h-386z" />
<glyph unicode="&#xf710;" d="M-752 1448v288h193v-128h675v-160h-868z" />
<glyph unicode="&#xf711;" d="M-697 1614q0 34 14 65t38.5 53.5t58 36t71.5 13.5q39 0 72 -13.5t58 -36t39.5 -53.5t14.5 -65q0 -35 -14.5 -65.5t-39.5 -52.5t-58 -35t-72 -13q-38 0 -71.5 13t-58 35t-38.5 52.5t-14 65.5zM-589 1614q0 -68 74 -68t74 68q0 67 -74 67t-74 -67z" />
<glyph unicode="&#xf712;" d="M-1248 1448v124q0 138 94 217t270 79h601v-128h-591q-181 0 -181 -123v-9h138l174 89l170 -89h187v-160h-196l-161 92l-160 -92h-345z" />
<glyph unicode="&#xf713;" d="M-611 1865v289h193v-289h-193z" />
<glyph unicode="&#xf714;" d="M-700 2049v121h124q149 0 149 -118v-36h385v-151h-569v119q0 65 -64 65h-25z" />
<glyph unicode="&#xf715;" d="M-700 1865v148q0 177 188 177h61l113 -88l110 88h54q183 0 183 -162v-25h184v-138h-347v157q0 49 -36 49l-148 -113l-150 113q-49 0 -49 -52v-28h93v-126h-256z" />
<glyph unicode="&#xf716;" d="M-746 1984v136h145v117h174v-117h144v-136h-144v-119h-174v119h-145z" />
<glyph unicode="&#xf717;" d="M-691 1736v55q0 176 209 176h157v-121h-86q-98 0 -98 -78v-32h-182z" />
<glyph unicode="&#xf718;" d="M-418 -611h322v-386h-193v225h-129v161z" />
<glyph unicode="&#xf719;" d="M-739 -611h288v-224q40 -21 74 -21q88 0 88 62v183h193v-193q0 -44 -22 -79t-60.5 -60.5t-89.5 -39.5t-109 -14q-169 0 -267 107v129h-95v150z" />
<glyph unicode="&#xf71a;" d="M-353 -739q0 25 9.5 48.5t26.5 40.5t40.5 28t51.5 11q26 0 49.5 -11t40.5 -28t28 -40.5t11 -48.5q0 -29 -11 -52.5t-28 -40.5t-40.5 -26.5t-49.5 -9.5q-54 0 -91 37t-37 92z" />
<glyph unicode="&#xf71d;" />
<glyph unicode="&#xf880;" />
<glyph horiz-adv-x="910" d="M-697 1614q0 34 14 65t38.5 53.5t58 36t71.5 13.5q39 0 72 -13.5t58 -36t39.5 -53.5t14.5 -65q0 -35 -14.5 -65.5t-39.5 -52.5t-58 -35t-72 -13q-38 0 -71.5 13t-58 35t-38.5 52.5t-14 65.5zM-589 1614q0 -68 74 -68t74 68q0 67 -74 67t-74 -67zM16 1039v203 q121 67 303 67q245 0 375 -139q119 -118 119 -324v-846h-193v794q0 153 -79 244t-232 91q-152 0 -293 -90z" />
<glyph d="M-945 1639q0 181 264 236q-62 34 -62 125q0 61 38 113t106 89.5t163 59t211 21.5q32 0 65 -1.5t64 -5.5v-167q-39 7 -78.5 12t-79.5 5q-63 0 -115.5 -8t-93.5 -25q-93 -33 -93 -96q0 -78 148 -64v-151q-55 5 -112.5 -0.5t-116.5 -23.5q-124 -37 -124 -102q0 -58 89 -58 q85 0 166 49l79 -132q-124 -67 -254 -67q-57 0 -105.5 14t-84 39t-55 60.5t-19.5 77.5z" />
<glyph />
<glyph />
<glyph d="M-1350 1448v160h482v160h160v-160h97v160h193v-320h-932zM-739 1865v289h193v-289h-193z" />
<glyph d="M-1292 1448v160h932v-160h-932z" />
<glyph d="M-1292 1448v160h739v160h193v-320h-932z" />
</font>
</defs>
</svg>
